<svg width="197" height="197" viewBox="0 0 197 197" fill="none" xmlns="http://www.w3.org/2000/svg">
<path d="M196.281 98.14C196.281 101.828 196.079 105.461 195.683 109.043C195.273 112.745 194.657 116.384 193.849 119.949C193.003 123.668 191.951 127.307 190.696 130.852C189.372 134.6 187.827 138.237 186.075 141.759C184.2 145.539 182.084 149.181 179.749 152.663C177.188 156.499 174.355 160.144 171.287 163.568C167.765 167.505 163.932 171.152 159.825 174.471C154.669 178.648 149.081 182.305 143.14 185.377C129.659 192.347 114.361 196.28 98.1413 196.28C81.92 196.28 66.6227 192.347 53.1427 185.377C47.2 182.305 41.612 178.648 36.456 174.471C32.348 171.152 28.516 167.505 24.9947 163.568C21.9267 160.144 19.0933 156.499 16.532 152.663C14.1987 149.181 12.0813 145.539 10.2067 141.759C8.45466 138.237 6.90934 134.6 5.58667 130.852C4.33067 127.307 3.27867 123.668 2.43201 119.949H24.9707C26.0907 123.713 27.496 127.356 29.1547 130.852C30.9693 134.672 33.092 138.319 35.492 141.759C38.224 145.676 41.316 149.327 44.72 152.663C48.9613 156.819 53.684 160.484 58.804 163.568C70.2893 170.489 83.7533 174.471 98.1413 174.471C112.528 174.471 125.992 170.489 137.477 163.568C142.597 160.484 147.32 156.819 151.561 152.663C154.965 149.327 158.056 145.676 160.788 141.759C163.189 138.319 165.312 134.672 167.127 130.852C168.785 127.356 170.191 123.713 171.311 119.949C172.364 116.412 173.164 112.771 173.699 109.043H128.987C127.555 113.107 125.341 116.801 122.524 119.949C116.533 126.639 107.829 130.852 98.1413 130.852C88.452 130.852 79.748 126.639 73.7573 119.949C70.94 116.801 68.7267 113.107 67.2947 109.043H0.598673C0.202674 105.461 0 101.828 0 98.14C0 94.4534 0.202674 90.82 0.598673 87.2374C1.00801 83.5347 1.62401 79.896 2.43201 76.3307C3.27867 72.612 4.33067 68.9734 5.58667 65.428C6.90934 61.68 8.45466 58.0427 10.2067 54.5214C12.0813 50.7414 14.1987 47.1 16.532 43.6187C19.0933 39.7814 21.9267 36.136 24.9947 32.712C28.516 28.7747 32.348 25.128 36.456 21.8094C41.612 17.632 47.2 13.9747 53.1427 10.9027C66.6227 3.9347 81.92 3.20443e-05 98.1413 3.20443e-05C114.361 3.20443e-05 129.659 3.9347 143.14 10.9027C149.081 13.9747 154.669 17.632 159.825 21.8094C163.932 25.128 167.765 28.7747 171.287 32.712C174.355 36.136 177.188 39.7814 179.749 43.6187C182.084 47.1 184.2 50.7414 186.075 54.5214C187.827 58.0427 189.372 61.68 190.696 65.428C191.951 68.9734 193.003 72.612 193.849 76.3307H171.311C170.191 72.5667 168.785 68.9254 167.127 65.428C165.312 61.608 163.189 57.9614 160.788 54.5214C158.056 50.604 154.965 46.9534 151.561 43.6187C147.32 39.4627 142.597 35.796 137.477 32.712C125.992 25.7907 112.528 21.8094 98.1413 21.8094C83.7533 21.8094 70.2893 25.7907 58.804 32.712C53.684 35.796 48.9613 39.4627 44.72 43.6187C41.316 46.9534 38.224 50.604 35.492 54.5214C33.092 57.9614 30.9693 61.608 29.1547 65.428C27.496 68.9254 26.0907 72.5667 24.9707 76.3307C23.9187 79.868 23.1173 83.5094 22.584 87.2374H67.2947C68.7267 83.1734 70.94 79.48 73.7573 76.3307C79.748 69.6414 88.452 65.428 98.1413 65.428C107.829 65.428 116.533 69.6414 122.524 76.3307C125.341 79.48 127.555 83.1734 128.987 87.2374H195.683C196.079 90.82 196.281 94.4534 196.281 98.14Z" fill="black"/>
<path d="M135.919 119.95C133.549 124.053 130.525 127.737 126.993 130.853C119.302 137.643 109.201 141.758 98.1407 141.758C87.0794 141.758 76.9794 137.643 69.2887 130.853C65.7567 127.737 62.7327 124.053 60.362 119.95H36.4367C37.7807 123.757 39.4714 127.405 41.466 130.853C43.7247 134.761 46.3794 138.417 49.374 141.758C53.0807 145.903 57.31 149.574 61.9594 152.662C72.3247 159.554 84.766 163.569 98.1407 163.569C111.515 163.569 123.957 159.554 134.321 152.662C138.971 149.574 143.201 145.903 146.907 141.758C149.902 138.417 152.558 134.761 154.815 130.853C156.81 127.405 158.502 123.757 159.845 119.95H135.919ZM159.845 76.3299H135.919C133.549 72.2273 130.525 68.5433 126.993 65.4273C119.302 58.6379 109.201 54.5219 98.1407 54.5219C87.0794 54.5219 76.9794 58.6379 69.2887 65.4273C65.7567 68.5433 62.7327 72.2273 60.362 76.3299H36.4367C37.7807 72.5233 39.4714 68.8753 41.466 65.4273C43.7247 61.5193 46.3794 57.8646 49.374 54.5219C53.0807 50.3766 57.31 46.7059 61.9594 43.6193C72.3247 36.7273 84.766 32.7113 98.1407 32.7113C111.515 32.7113 123.957 36.7273 134.321 43.6193C138.971 46.7059 143.201 50.3766 146.907 54.5219C149.902 57.8646 152.558 61.5193 154.815 65.4273C156.81 68.8753 158.502 72.5233 159.845 76.3299" fill="black"/>
</svg>
