<svg xmlns="http://www.w3.org/2000/svg" viewBox="0 0 329.71 329.7"><g id="Layer_2" data-name="Layer 2"><g id="Layer_1-2" data-name="Layer 1"><path fill="#818cf8" d="M216.15,223.66l-7.72-1.33a69,69,0,0,1-6.14,4.17l-.89.53c-.23.14-.45.27-.68.39s-.53.32-.81.46-.56.32-.85.46c-.5.28-1,.55-1.53.81l-.89.44c-.63.32-1.27.61-1.91.91a69.28,69.28,0,0,1-10.89,3.83,67.94,67.94,0,0,1-15.91,2.25,70.05,70.05,0,0,1-26.83-4.65,68.64,68.64,0,0,1-12.63-6.39,70.12,70.12,0,0,1-14.21-12.15c-.86-1-1.68-1.94-2.48-2.95a69.78,69.78,0,0,1-4.27-81.3c.35-.54.71-1.08,1.07-1.6a69.77,69.77,0,0,1,21-20c1.08-.67,2.2-1.32,3.32-1.93q2.31-1.26,4.72-2.35a69.18,69.18,0,0,1,26.81-6.09,70.4,70.4,0,0,1,26.82,4.66,68.64,68.64,0,0,1,12.63,6.39c.54.35,1.07.7,1.61,1.07s.94.65,1.41,1c.94.68,1.85,1.38,2.75,2.1l.68.55c.22.18.44.36.65.55,1.77,1.48,3.44,3,5.05,4.69l.56.58c.52.54,1,1.09,1.53,1.66.27.3.54.61.8.92.42.47.82.95,1.22,1.46l.12.16a1.68,1.68,0,0,1,.24.29c.37.45.72.9,1.08,1.36,1.06,1.38,2.07,2.82,3,4.28l7.71,1.34,19.33-13.62a99.4,99.4,0,0,0-16.79-21.27c-1.34-1.3-2.74-2.57-4.17-3.8s-2.67-2.23-4.05-3.29a99.5,99.5,0,0,0-82.92-18q-4.09.95-8.06,2.24A99.84,99.84,0,0,0,94.61,98.16q-2,2-3.78,4.18a99.34,99.34,0,0,0-21.3,87,102.24,102.24,0,0,0,4,13,99.55,99.55,0,0,0,16.54,28.18,99.38,99.38,0,0,0,98.59,33.06q4.08-.94,8.05-2.24,2.48-.79,4.9-1.73A99.75,99.75,0,0,0,229.78,243Z"/><path fill="#818cf8" d="M316.74,100.68a165.43,165.43,0,0,0-53.88-68.39L241.75,53.4a136.34,136.34,0,0,1,35.38,35.76,135.32,135.32,0,0,1,23.11,75.69,137.29,137.29,0,0,1-.91,15.81,135.38,135.38,0,0,1-57.6,95.63h0l21.13,21.13h0a165,165,0,0,0,53.88-196.74ZM89.17,52.58a135.21,135.21,0,0,1,75.68-23.12,136.19,136.19,0,0,1,13.62.68A134.18,134.18,0,0,1,211,37.54l.39.15L234,15.15A161.18,161.18,0,0,0,211,6.56a163.53,163.53,0,0,0-32.55-6C174,.19,169.43,0,164.85,0s-9.12.19-13.61.56A164.94,164.94,0,0,0,13,229a165.09,165.09,0,0,0,105.72,94.12,163.76,163.76,0,0,0,32.56,6q6.73.56,13.61.56t13.62-.56a164.37,164.37,0,0,0,32.55-6,162.28,162.28,0,0,0,18-6.41c1.65-.7,3.29-1.43,4.92-2.17L211.4,292l-.38.14a133.7,133.7,0,0,1-32.55,7.39,136.64,136.64,0,0,1-27.23,0,133.88,133.88,0,0,1-32.56-7.39q-3.3-1.2-6.52-2.56a135.39,135.39,0,0,1-23-237Z"/><rect fill="#818cf8" x="183.27" y="149.04" width="133.31" height="31.62"/><circle fill="#818cf8" cx="164.82" cy="164.85" r="32.46"/><path fill="#818cf8" d="M287,54.17,266.16,75,240.5,100.69l-16.72,16.72H216c-1.19-1.28-2.43-2.52-3.71-3.7-.43-.4-.86-.79-1.3-1.16a4.88,4.88,0,0,0-.43-.38c-.48-.43-1-.84-1.45-1.23l-.95-.77c-.59-.47-1.18-.93-1.79-1.37l-.65-.48c-1.86-1.34-3.78-2.6-5.77-3.76l-1.5-.85c-1-.56-2-1.09-3.07-1.6-.52-.26-1-.5-1.56-.74l21.8-21.8,47.28-47.28A164,164,0,0,1,287,54.17Z"/><path fill="#818cf8" d="M287,275.53a165.15,165.15,0,0,1-24.16,21.89l-47.3-47.3-21.8-21.8a69.49,69.49,0,0,0,10.08-5.64c.58-.4,1.16-.8,1.73-1.22l.8-.59c.46-.34.92-.69,1.37-1.05.26-.19.51-.39.76-.6s.49-.39.72-.59l.6-.5c.27-.22.53-.44.79-.68a66.55,66.55,0,0,0,5.33-5.16h7.84Z"/></g></g></svg>
