<svg width="828" height="1021" viewBox="0 0 828 1021" fill="none" xmlns="http://www.w3.org/2000/svg">
<path d="M444.8 504.6C462 526.1 481.1 549.7 494.5 566.2C509.4 521.4 489.5 458.8 467.3 412C462 441.1 454.6 471.9 444.8 504.6Z" fill="#F2C94C"/>
<path d="M340 338.8C317.9 360 298.1 399.6 313 461.5C326.4 460.4 345.4 458.9 362.6 457.3C352.8 413.3 345.4 374 340 338.8Z" fill="#F2994A"/>
<path opacity="0.2" d="M387.6 559.3C264 84.7 365.7 44.4 404.1 28.2C442.5 88.8 544.1 246.4 420.4 578.2L387.6 559.3Z" fill="url(#paint0_linear_291_5473)"/>
<path opacity="0.1" d="M424 532C300.4 57.5 402 17.1 440.5 0.899994C478.9 61.5 580.5 219.1 456.8 550.9L424 532Z" fill="url(#paint1_linear_291_5473)"/>
<path opacity="0.15" d="M420.4 578.2C544.1 246.4 442.5 88.8 404.1 28.2V568.8L420.4 578.2Z" fill="url(#paint2_linear_291_5473)"/>
<path opacity="0.1" d="M440.9 195.3C440.9 224.2 423.9 237.8 402.9 225.7C381.9 213.6 364.9 180.3 364.9 151.4C364.9 122.5 381.9 108.9 402.9 121C423.9 133.1 440.9 166.4 440.9 195.3Z" fill="white"/>
<path opacity="0.1" d="M433.4 685.6C424.7 671.4 420.5 653.4 416.8 637.6C412.5 619.4 408.9 603.9 399.9 600C389.6 595.5 385 606.9 378.5 622.7C374.7 632 370.2 643 363.6 653.1C356.5 645.6 349 639.4 341.1 634.9C308 615.8 280.4 632.3 273.9 671.7C269.4 668.3 264.9 665.2 260.3 662.5C207.2 631.9 164.2 666.6 164.2 740.2C164.2 813.7 207.2 898.1 260.2 928.7C311.7 958.4 353.8 926.5 356.2 857.4C365.9 875.4 378.8 890.5 393.1 898.7C396.8 900.8 400.4 902.4 403.8 903.4C424.4 948.7 455.1 987.7 489.4 1007.5C551.4 1043.3 601.7 1002.9 601.8 917.3C601.8 831.7 551.5 733.2 489.5 697.4C469 685.6 449.9 682 433.4 685.6Z" fill="url(#paint3_linear_291_5473)"/>
<path opacity="0.3" d="M533.3 358.2L804 514.5L804.1 655.6L557.3 513.1L533.4 520.9L533.3 358.2Z" fill="url(#paint4_linear_291_5473)"/>
<path d="M725.3 539.3V501L827.5 560V598.3L725.3 539.3Z" fill="#F2C94C"/>
<path opacity="0.1" d="M602.9 432.7L662.2 466.9V479.3L602.9 445.1V432.7Z" fill="white"/>
<path opacity="0.1" d="M603 457.5L710 519.3V531.7L603 469.9V457.5Z" fill="white"/>
<path opacity="0.15" d="M603 482.3L741.5 562.3V574.7L603 494.7V482.3Z" fill="white"/>
<path d="M588.3 437.2C588.3 448.8 581.4 454.3 572.9 449.4C564.4 444.5 557.5 431.1 557.5 419.5C557.5 407.9 564.4 402.4 572.9 407.3C581.5 412.2 588.3 425.6 588.3 437.2Z" fill="#F2C94C"/>
<path opacity="0.3" d="M299.8 158.9L29.0996 2.70001L29.1996 143.8L276 286.2L299.9 321.6L299.8 158.9Z" fill="url(#paint5_linear_291_5473)"/>
<path d="M0.200195 57.7V19.4L102.4 78.4V116.7L0.200195 57.7Z" fill="#F2994A"/>
<path opacity="0.15" d="M230.2 153.1L170.9 118.9V131.3L230.2 165.5V153.1Z" fill="white"/>
<path opacity="0.15" d="M230.2 177.9L115.9 111.9V124.3L230.2 190.3V177.9Z" fill="white"/>
<path opacity="0.15" d="M230.2 202.7L91.7002 122.7V135.1L230.2 215.1V202.7Z" fill="white"/>
<path d="M244.8 174.4C244.8 186 251.7 199.4 260.2 204.3C268.7 209.2 275.6 203.7 275.6 192.1C275.6 180.5 268.7 167.1 260.2 162.2C251.7 157.4 244.8 162.8 244.8 174.4Z" fill="#F2994A"/>
<path opacity="0.2" d="M263.8 309.5L102.1 216.2V300.4L263.8 393.7V309.5Z" fill="url(#paint6_linear_291_5473)"/>
<path opacity="0.15" d="M143.5 260.3L198.9 292.3V302.4L143.5 270.4V260.3Z" fill="white"/>
<path opacity="0.15" d="M143.5 280.6L247.1 340.4V350.6L143.5 290.8V280.6Z" fill="white"/>
<path d="M135 263.3C135 270.2 130.9 273.5 125.8 270.6C120.7 267.7 116.6 259.7 116.6 252.7C116.6 245.8 120.7 242.5 125.8 245.4C130.8 248.4 135 256.4 135 263.3Z" fill="#F2994A"/>
<path opacity="0.2" d="M744 373.1L582.3 279.8V364L744 457.4V373.1Z" fill="url(#paint7_linear_291_5473)"/>
<path opacity="0.15" d="M623.7 324L679.1 356V366.1L623.7 334.1V324Z" fill="white"/>
<path opacity="0.15" d="M623.8 344.3L727.4 404.1V414.3L623.8 354.5V344.3Z" fill="white"/>
<path d="M615.2 327C615.2 333.9 611.1 337.2 606 334.3C600.9 331.4 596.8 323.4 596.8 316.4C596.8 309.5 600.9 306.2 606 309.1C611.1 312.1 615.2 320.1 615.2 327Z" fill="#F2C94C"/>
<defs>
<linearGradient id="paint0_linear_291_5473" x1="548.194" y1="45.0267" x2="237.343" y2="583.58" gradientUnits="userSpaceOnUse">
<stop stop-color="white"/>
<stop offset="1" stop-color="white" stop-opacity="0"/>
</linearGradient>
<linearGradient id="paint1_linear_291_5473" x1="584.585" y1="17.7343" x2="273.734" y2="556.287" gradientUnits="userSpaceOnUse">
<stop stop-color="white"/>
<stop offset="1" stop-color="white" stop-opacity="0"/>
</linearGradient>
<linearGradient id="paint2_linear_291_5473" x1="490.226" y1="162.462" x2="250.263" y2="595.442" gradientUnits="userSpaceOnUse">
<stop stop-color="white" stop-opacity="0"/>
<stop offset="1" stop-color="white"/>
</linearGradient>
<linearGradient id="paint3_linear_291_5473" x1="467.652" y1="684.819" x2="333.389" y2="917.432" gradientUnits="userSpaceOnUse">
<stop stop-color="white"/>
<stop offset="1" stop-color="white" stop-opacity="0"/>
</linearGradient>
<linearGradient id="paint4_linear_291_5473" x1="649.61" y1="362.769" x2="684.61" y2="646.635" gradientUnits="userSpaceOnUse">
<stop stop-color="white"/>
<stop offset="1" stop-color="white" stop-opacity="0"/>
</linearGradient>
<linearGradient id="paint5_linear_291_5473" x1="240.766" y1="102.401" x2="100.984" y2="211.846" gradientUnits="userSpaceOnUse">
<stop stop-color="white"/>
<stop offset="1" stop-color="white" stop-opacity="0"/>
</linearGradient>
<linearGradient id="paint6_linear_291_5473" x1="201.169" y1="273.327" x2="164.703" y2="336.504" gradientUnits="userSpaceOnUse">
<stop stop-color="white"/>
<stop offset="1" stop-color="white" stop-opacity="0"/>
</linearGradient>
<linearGradient id="paint7_linear_291_5473" x1="681.431" y1="337.004" x2="644.965" y2="400.181" gradientUnits="userSpaceOnUse">
<stop stop-color="white"/>
<stop offset="1" stop-color="white" stop-opacity="0"/>
</linearGradient>
</defs>
</svg>
